<svg width="147" height="72" viewBox="0 0 147 72" fill="none" xmlns="http://www.w3.org/2000/svg">
  <defs>
    <linearGradient id="animatedGradient" x1="12.1627" y1="63.3194" x2="128.657" y2="33.0803" gradientUnits="userSpaceOnUse">
      <stop offset="0%" stop-color="#6D56FA" stop-opacity="0">
        <animate attributeName="stop-opacity" values="0;1;0" dur="3s" repeatCount="indefinite"/>
      </stop>
      <stop offset="100%" stop-color="#6D56FA">
        <animate attributeName="stop-opacity" values="1;0;1" dur="3s" repeatCount="indefinite"/>
      </stop>
    </linearGradient>
  </defs>
  <path d="M53.2065 24.5139L57.0677 26.7955L53.2065 24.5139ZM82.95 18.6705L86.4848 21.4309L82.95 18.6705ZM139.938 21.6143C142 22.9866 144.784 22.4274 146.157 20.3654C147.529 18.3033 146.97 15.5192 144.908 14.1469L139.938 21.6143ZM1.26821 67.1181L1.99901 71.5431C8.13703 70.5294 16.2318 69.546 25.6603 63.4673C35.0041 57.4431 45.3231 46.671 57.0677 26.7955L53.2065 24.5139L49.3453 22.2323C38.0057 41.4226 28.5546 50.9288 20.7999 55.9284C13.1299 60.8734 6.79765 61.6592 0.537418 62.6931L1.26821 67.1181ZM53.2065 24.5139L57.0677 26.7955C66.7816 10.3564 78.9448 7.64265 87.7056 10.5637C96.9303 13.6395 103.846 23.2592 102.659 34.6298L107.12 35.0951L111.581 35.5604C113.209 19.9533 103.708 6.44404 90.5428 2.05442C76.9136 -2.48991 60.7129 2.99456 49.3453 22.2323L53.2065 24.5139ZM107.12 35.0951L102.659 34.6298C102.093 40.0574 99.7286 42.512 97.4057 43.5525C94.8412 44.7013 91.3891 44.547 88.2126 42.9526C85.0807 41.3806 82.6995 38.645 81.9601 35.276C81.2402 31.9954 81.9052 27.2953 86.4848 21.4309L82.95 18.6705L79.4151 15.9102C73.6227 23.3278 71.7713 30.694 73.1988 37.1987C74.6069 43.6149 79.037 48.3835 84.1889 50.9693C89.2962 53.5328 95.6002 54.19 101.073 51.7386C106.787 49.1789 110.74 43.6216 111.581 35.5604L107.12 35.0951ZM82.95 18.6705L86.4848 21.4309C93.5077 12.4377 103.339 10.2746 113.517 11.5355C123.827 12.8127 133.892 17.5903 139.938 21.6143L142.423 17.8806L144.908 14.1469C138.045 9.57956 126.671 4.12656 114.62 2.63371C102.438 1.12462 88.9875 3.6522 79.4151 15.9102L82.95 18.6705Z" fill="url(#animatedGradient)"/>
</svg>