<svg width="115" height="134" viewBox="0 0 115 134" fill="none" xmlns="http://www.w3.org/2000/svg">
<path d="M35.2158 1.48099C35.5979 1.45021 35.9822 1.49618 36.3467 1.61478C36.7093 1.73277 37.0452 1.92067 37.335 2.16849C37.6226 2.42267 37.8578 2.73084 38.0264 3.07571C38.1953 3.42131 38.2938 3.79725 38.3174 4.18118C38.3409 4.5652 38.2885 4.95028 38.1631 5.314C38.0377 5.6777 37.8421 6.01343 37.5869 6.3013L37.5811 6.30716L34.1514 10.2808L33.8584 10.6206L34.0879 11.0064C36.3056 14.7336 37.0578 19.1528 36.1982 23.4038C35.3387 27.6548 32.929 31.4346 29.4375 34.0074C25.9459 36.5801 21.6215 37.762 17.3066 37.3238C12.9919 36.8854 8.99469 34.8575 6.0918 31.6353C3.18888 28.413 1.58781 24.2262 1.60059 19.8892C1.61346 15.5524 3.23858 11.3754 6.16016 8.17044C9.082 4.96536 13.0919 2.96126 17.4092 2.54837C21.7264 2.13553 26.0432 3.34292 29.5195 5.93607L29.9863 6.2847L30.3652 5.84232L33.2266 2.50735L33.2305 2.50345C33.4775 2.21041 33.7803 1.96891 34.1211 1.79349C34.4618 1.61815 34.8339 1.51177 35.2158 1.48099ZM25.5967 10.3316C23.4315 8.91965 20.8571 8.26987 18.2812 8.48489C15.7055 8.69991 13.275 9.76788 11.374 11.5191C9.47295 13.2704 8.2093 15.6062 7.78418 18.1558C7.35917 20.7053 7.79645 23.3239 9.02637 25.5972C10.2564 27.8706 12.2095 29.6694 14.5762 30.7085C16.9428 31.7475 19.5888 31.9675 22.0947 31.3345C24.6007 30.7014 26.8238 29.2508 28.4131 27.2124C29.9991 25.1782 30.8638 22.6744 30.8701 20.0952C30.9027 18.8467 30.7247 17.6012 30.3438 16.4117L30.0029 15.3462L29.2764 16.1968L21.5684 25.23C21.2562 25.5906 20.8609 25.87 20.417 26.0445C19.9729 26.2189 19.4928 26.2828 19.0186 26.231C18.5442 26.1791 18.0893 26.0129 17.6934 25.7466C17.3468 25.5136 17.0537 25.2105 16.834 24.857L16.7451 24.7027L12.0146 15.9273C11.6514 15.2426 11.5744 14.4421 11.8008 13.7007C12.0276 12.9582 12.5402 12.3359 13.2256 11.9712C13.9109 11.6067 14.7127 11.5297 15.4551 11.7564C16.1975 11.9831 16.8199 12.4949 17.1846 13.1802V13.1812L19.4082 17.3443L19.8379 18.149L20.4307 17.4556L25.7295 11.2583L26.1904 10.7193L25.5967 10.3316Z" fill="#D2D1D6" stroke="white" stroke-width="0.2"/>
<path d="M46.6873 6.41504H94.1599C94.9356 6.41504 95.6797 6.72307 96.2283 7.27148C96.7768 7.82001 97.0856 8.56412 97.0857 9.33984C97.0857 10.1156 96.7768 10.8596 96.2283 11.4082C95.6797 11.9567 94.9357 12.2656 94.1599 12.2656H46.6873C45.9115 12.2656 45.1674 11.9567 44.6189 11.4082C44.0704 10.8597 43.7625 10.1156 43.7625 9.33984C43.7625 8.56412 44.0704 7.82001 44.6189 7.27148C45.1674 6.72296 45.9115 6.41509 46.6873 6.41504Z" fill="#D2D1D6" stroke="white" stroke-width="0.2"/>
<path d="M46.6873 19.2116H111.167C111.942 19.2116 112.687 19.5197 113.235 20.0681C113.784 20.6166 114.092 21.3607 114.093 22.1364C114.093 22.9122 113.784 23.6562 113.235 24.2048C112.687 24.7533 111.942 25.0622 111.167 25.0622H46.6873C45.9115 25.0622 45.1674 24.7533 44.6189 24.2048C44.0704 23.6563 43.7625 22.9122 43.7625 22.1364C43.7625 21.3607 44.0704 20.6166 44.6189 20.0681C45.1674 19.5196 45.9115 19.2117 46.6873 19.2116Z" fill="#D2D1D6" stroke="white" stroke-width="0.2"/>
<path d="M19.0488 50.458C23.6807 50.4643 28.1212 52.3068 31.3965 55.5821C34.6657 58.8513 36.5085 63.2816 36.5215 67.9043C35.5613 91.0843 2.58417 91.0928 1.60059 67.9297C1.60066 63.2999 3.43831 58.859 6.70996 55.583C9.98145 52.3074 14.4193 50.4643 19.0488 50.458ZM23.4961 57.1924C21.3726 56.3129 19.0355 56.0829 16.7812 56.5313C14.527 56.9797 12.4563 58.0867 10.8311 59.7119C9.20571 61.3373 8.09882 63.4087 7.65039 65.6631C7.20207 67.9174 7.43195 70.2545 8.31152 72.378C9.19111 74.5013 10.6809 76.3159 12.5918 77.5928C14.3299 78.7541 16.3461 79.4216 18.4258 79.5332V79.67H19.0488C20.5856 79.67 22.1072 79.3653 23.5254 78.7735C24.9436 78.1816 26.2307 77.3142 27.3115 76.2217C28.3922 75.1293 29.2457 73.8335 29.8223 72.4092C30.3268 71.1629 30.611 69.8398 30.6631 68.4991L30.6709 67.9229C30.6695 65.6269 29.9875 63.3828 28.7119 61.4737C27.4349 59.5625 25.6197 58.072 23.4961 57.1924Z" fill="#D2D1D6" stroke="white" stroke-width="0.2"/>
<path d="M46.488 71.7936H110.968C111.743 71.7936 112.487 72.1016 113.036 72.65C113.584 73.1986 113.893 73.9427 113.893 74.7184C113.893 75.4942 113.584 76.2382 113.036 76.7867C112.487 77.3352 111.743 77.6442 110.968 77.6442H46.488C45.7123 77.6441 44.9682 77.3353 44.4197 76.7867C43.8712 76.2382 43.5632 75.4941 43.5632 74.7184C43.5633 73.9427 43.8712 73.1985 44.4197 72.65C44.9682 72.1015 45.7123 71.7936 46.488 71.7936Z" fill="#D2D1D6" stroke="white" stroke-width="0.2"/>
<path d="M46.488 57.5541H93.9607C94.7364 57.5541 95.4805 57.8621 96.0291 58.4105C96.5776 58.9591 96.8864 59.7032 96.8865 60.4789C96.8865 61.2547 96.5776 61.9987 96.0291 62.5472C95.4805 63.0958 94.7365 63.4047 93.9607 63.4047H46.488C45.7123 63.4046 44.9682 63.0958 44.4197 62.5472C43.8712 61.9987 43.5632 61.2546 43.5632 60.4789C43.5633 59.7032 43.8712 58.959 44.4197 58.4105C44.9682 57.862 45.7123 57.5541 46.488 57.5541Z" fill="#D2D1D6" stroke="white" stroke-width="0.2"/>
<path d="M19.0488 97.7652C23.6807 97.7714 28.1212 99.614 31.3965 102.889C34.6657 106.158 36.5085 110.589 36.5215 115.211C35.5613 138.391 2.58417 138.4 1.60059 115.237C1.60066 110.607 3.43831 106.166 6.70996 102.89C9.98145 99.6146 14.4193 97.7715 19.0488 97.7652ZM23.4961 104.5C21.3726 103.62 19.0355 103.39 16.7812 103.838C14.527 104.287 12.4563 105.394 10.8311 107.019C9.20571 108.644 8.09882 110.716 7.65039 112.97C7.20207 115.225 7.43195 117.562 8.31152 119.685C9.19111 121.808 10.6809 123.623 12.5918 124.9C14.3299 126.061 16.3461 126.729 18.4258 126.84V126.977H19.0488C20.5856 126.977 22.1072 126.672 23.5254 126.081C24.9436 125.489 26.2307 124.621 27.3115 123.529C28.3922 122.436 29.2457 121.141 29.8223 119.716C30.3268 118.47 30.611 117.147 30.6631 115.806L30.6709 115.23C30.6695 112.934 29.9875 110.69 28.7119 108.781C27.4349 106.87 25.6197 105.379 23.4961 104.5Z" fill="#D2D1D6" stroke="white" stroke-width="0.2"/>
<path d="M46.488 119.101H110.968C111.743 119.101 112.487 119.409 113.036 119.957C113.584 120.506 113.893 121.25 113.893 122.026C113.893 122.802 113.584 123.546 113.036 124.094C112.487 124.643 111.743 124.952 110.968 124.952H46.488C45.7123 124.951 44.9682 124.643 44.4197 124.094C43.8712 123.546 43.5632 122.801 43.5632 122.026C43.5633 121.25 43.8712 120.506 44.4197 119.957C44.9682 119.409 45.7123 119.101 46.488 119.101Z" fill="#D2D1D6" stroke="white" stroke-width="0.2"/>
<path d="M46.488 104.861H93.9607C94.7364 104.861 95.4805 105.169 96.0291 105.718C96.5776 106.266 96.8864 107.011 96.8865 107.786C96.8865 108.562 96.5776 109.306 96.0291 109.855C95.4805 110.403 94.7365 110.712 93.9607 110.712H46.488C45.7123 110.712 44.9682 110.403 44.4197 109.855C43.8712 109.306 43.5632 108.562 43.5632 107.786C43.5633 107.01 43.8712 106.266 44.4197 105.718C44.9682 105.169 45.7123 104.861 46.488 104.861Z" fill="#D2D1D6" stroke="white" stroke-width="0.2"/>
</svg>
